<svg xmlns="http://www.w3.org/2000/svg" width="172" height="23" viewBox="0 0 172 23">
    <g fill="none" fill-rule="evenodd">
        <g fill="#000" fill-rule="nonzero">
            <g>
                <g>
                    <path d="M2.783 8.537c-.046-.171-.046-.358 0-.53.078-.434.482-.73.918-.683.482-.047.902.31.948.777v.762h2.535v-.715c0-2.208-1.99-2.55-3.437-2.55-1.803 0-3.265.606-3.56 2.254-.078.451-.078.918.015 1.369.451 2.083 4.09 2.69 4.603 3.996.077.249.093.513.015.777-.109.451-.544.747-.995.669-.497.062-.948-.295-1.01-.793 0-.047-.016-.093 0-.14v-.964H.077v.777c0 2.27 1.788 2.955 3.7 2.955 1.835 0 3.344-.622 3.592-2.333.094-.544.094-1.12 0-1.663-.435-2.13-4.291-2.753-4.571-3.95m33.089.031c-.031-.17-.031-.357 0-.528.078-.436.482-.731.917-.685.467-.03.886.327.918.809v.731h2.503v-.731c0-2.193-1.96-2.535-3.39-2.535-1.788 0-3.265.591-3.514 2.24-.078.45-.078.917.031 1.352.436 2.037 4.012 2.66 4.54 3.95.063.249.063.497 0 .746-.077.342-.31.684-.979.684-.498.063-.948-.295-1.01-.793V12.72h-2.675v.778c0 2.254 1.757 2.923 3.67 2.923 1.819 0 3.327-.622 3.56-2.301.094-.544.078-1.104-.015-1.648-.405-2.115-4.23-2.753-4.525-3.919m23.075 5.551L56.599 5.91h-3.778v10.076h2.503l-.14-8.46 2.582 8.46h3.623V5.909h-2.52l.125 8.194zM10.978 5.91L9.096 16.094h2.753l1.415-9.439 1.383 9.423h2.737L15.487 5.893l-4.51.016zm15.363 0l-1.291 7.945-1.275-7.945h-4.136l-.218 10.185h2.535l.062-9.439 1.741 9.423h2.582l1.741-9.423.078 9.423h2.55l-.233-10.185-4.136.016zm23.634 0h-2.58v7.526c.015.14.015.264 0 .404-.156.544-.7.855-1.245.7-.342-.094-.606-.358-.7-.7-.03-.14-.03-.264-.03-.404V5.909h-2.566V13.2c0 .187 0 .576.015.669.187 1.897 1.68 2.519 3.546 2.519 1.866 0 3.374-.622 3.545-2.519.015-.218.015-.451 0-.669l.015-7.292zm17.664 4.478v1.477h1.042v1.477c0 .125 0 .265-.03.389-.187.575-.81.886-1.385.684-.326-.109-.575-.357-.684-.684-.015-.124-.031-.264-.031-.389V8.692c0-.155.016-.326.047-.482.17-.56.762-.886 1.321-.715.342.109.607.373.716.715.015.14.03.264.03.404v.56h2.566v-.326c.016-.218.016-.451 0-.67-.186-1.912-1.757-2.518-3.576-2.518-1.82 0-3.343.606-3.576 2.519 0 .171-.047.482-.047.669v4.276c0 .217.016.45.047.668.17 1.85 1.772 2.52 3.576 2.52s3.405-.654 3.576-2.52c.031-.342.031-.482.031-.668V10.37l-3.623.016zM82.147.14H83.147V21.94H82.147zM96.763 7.744H95.41v2.379h1.353c1.229 0 1.68-.498 1.68-1.244 0-.747-.498-1.135-1.68-1.135zm67.702 1.819c-1.089-.016-2.068.684-2.41 1.726h4.758c-.28-1.12-1.135-1.726-2.348-1.726zm-67.53 2.394H95.41v2.69h1.602c1.182 0 1.788-.482 1.788-1.352.016-.871-.42-1.338-1.866-1.338zm57.952-2.332c-1.4 0-2.535 1.12-2.535 2.519v.062c-.062 1.4 1.026 2.566 2.426 2.628 1.4.062 2.565-1.026 2.628-2.426v-.202c.03-1.384-1.058-2.55-2.457-2.581h-.062zm-9.625 0c-1.4 0-2.535 1.12-2.535 2.519v.062c-.062 1.4 1.026 2.566 2.426 2.628 1.4.062 2.565-1.026 2.628-2.426v-.202c.03-1.384-1.058-2.55-2.457-2.581h-.062zm-39.387 0c-1.4 0-2.534 1.12-2.534 2.519v.062c-.063 1.4 1.026 2.566 2.425 2.628 1.4.062 2.566-1.026 2.628-2.426v-.202c.031-1.384-1.057-2.55-2.457-2.581h-.062zm-9.127-3.67c2.301 0 3.638 1.027 3.638 2.924.031.84-.404 1.632-1.15 2.037.964.388 1.586 1.368 1.523 2.41 0 2.068-1.446 3.094-3.762 3.094H93.45V5.955h3.297zm41.998-.513v2.613h1.71v1.741h-1.71v3.141c0 1.462.203 1.695 1.71 1.695v1.82h-.264c-2.596 0-3.39-.81-3.39-3.5V9.766h-1.43V8.039h1.43V6.764l1.944-1.322zm-16.622.373v6.267l3.577-4.043h2.316l-3.265 3.639 3.39 4.758h-2.162l-2.519-3.623-1.337 1.477v2.146h-1.928V5.8l1.928.015zm9.33 2.053c1.664 0 2.783.669 3.436 1.741l-1.664.809c-.373-.622-1.057-.995-1.772-.964-.918 0-1.353.435-1.353.902 0 .56.669.7 1.928.98 1.384.28 2.954.761 2.954 2.518 0 1.182-1.041 2.753-3.436 2.737-1.835 0-3.063-.715-3.732-2.037l1.788-.855c.374.777 1.182 1.26 2.037 1.228.949 0 1.43-.466 1.43-1.026 0-.544-.932-.746-1.958-.964-1.446-.295-2.94-.777-2.94-2.535-.015-1.352 1.276-2.58 3.282-2.565v.03zm-25.859.015c1.027-.015 2.006.405 2.69 1.167V8.023h1.944v8.413h-1.944v-1.104c-.668.808-1.663 1.275-2.72 1.26-2.318-.032-4.168-1.945-4.137-4.261v-.094c.016-2.783 2.037-4.354 4.167-4.354zm39.387 0c1.026-.015 2.005.405 2.69 1.167V8.023h1.928v8.413h-1.928v-1.104c-.669.808-1.68 1.275-2.721 1.26-2.317-.032-4.168-1.945-4.137-4.261v-.094c.016-2.783 2.053-4.354 4.168-4.354zm-29.56 0c1.742-.03 3.328.996 3.997 2.597l-1.742.731c-.373-.917-1.26-1.508-2.255-1.508-1.368 0-2.487 1.104-2.487 2.472v.078c-.032 1.384 1.072 2.519 2.44 2.534h.047c1.011 0 1.897-.622 2.27-1.57l1.727.73c-.669 1.633-2.27 2.69-4.028 2.644-2.41 0-4.369-1.96-4.369-4.37s1.96-4.369 4.37-4.369l.03.031zm49.043 0c2.317-.077 4.245 1.742 4.323 4.059v.995h-6.827c.358 1.4 1.789 2.255 3.188 1.897.746-.187 1.384-.7 1.71-1.4l1.587.918c-1.244 2.13-3.997 2.861-6.127 1.617-1.322-.777-2.161-2.161-2.223-3.685-.032-2.395 1.865-4.354 4.26-4.385.047-.016.078-.016.109-.016zm-9.843 0c1.042-.015 2.022.42 2.69 1.229V8.039h1.944v8.179c0 2.348-1.508 4.292-4.338 4.292-2.177 0-3.53-1.011-4.308-2.41l1.726-1.042c.607 1.12 1.275 1.679 2.613 1.679 1.29.015 2.363-1.01 2.379-2.317V15.3l-.047.063c-.668.793-1.648 1.228-2.69 1.228-2.317-.031-4.167-1.96-4.136-4.276v-.093c0-2.768 2.037-4.339 4.167-4.339z" transform="translate(-26 -21) translate(26 21) translate(1.262)"/>
                </g>
            </g>
        </g>
    </g>
</svg>